<svg aria-hidden="true" style="position:absolute;width:0;height:0;overflow:hidden" xmlns="http://www.w3.org/2000/svg"><defs><symbol id="icon-btnUp" viewBox="0 0 32 32"><path d="M12.982 1.25 4.449 9.783a4.27 4.27 0 0 0 0 6.033c.804.806 1.877 1.25 3.017 1.25s2.212-.444 3.017-1.25L16 10.299l5.517 5.517c.806.806 1.877 1.25 3.017 1.25s2.21-.444 3.017-1.25c.806-.806 1.25-1.877 1.25-3.017s-.444-2.21-1.25-3.017l-8.533-8.533c-.804-.806-1.877-1.25-3.017-1.25s-2.212.444-3.017 1.25zm4.525 1.508 8.533 8.533c.806.809.806 2.208 0 3.017a2.135 2.135 0 0 1-3.017 0l-7.025-7.025-7.025 7.025c-.403.403-.939.625-1.508.625s-1.105-.222-1.508-.625a2.121 2.121 0 0 1-.625-1.506v-.003c0-.588.238-1.121.623-1.507l8.533-8.533c.405-.403.941-.625 1.51-.625s1.105.222 1.508.625z"/><path d="m12.982 16.183-8.533 8.533a4.27 4.27 0 0 0 0 6.033c.804.806 1.877 1.25 3.017 1.25s2.212-.444 3.017-1.25L16 25.232l5.517 5.517c.806.806 1.877 1.25 3.017 1.25s2.21-.444 3.017-1.25c.806-.806 1.25-1.877 1.25-3.017s-.444-2.21-1.25-3.017l-8.533-8.533c-.804-.806-1.877-1.25-3.017-1.25s-2.212.444-3.017 1.25zm4.525 1.509 8.533 8.533c.806.809.806 2.208 0 3.017a2.135 2.135 0 0 1-3.017 0l-7.025-7.025-7.025 7.025c-.403.403-.939.625-1.508.625s-1.105-.222-1.508-.625a2.133 2.133 0 0 1-.002-3.016l8.533-8.533c.405-.403.941-.625 1.51-.625s1.105.222 1.508.625z"/></symbol></defs></svg>